<?xml version="1.0" standalone="no"?>
<!DOCTYPE svg PUBLIC "-//W3C//DTD SVG 20010904//EN"
 "http://www.w3.org/TR/2001/REC-SVG-20010904/DTD/svg10.dtd">
<svg version="1.0" xmlns="http://www.w3.org/2000/svg"
 width="293.000000pt" height="60.000000pt" viewBox="0 0 293.000000 60.000000"
 preserveAspectRatio="xMidYMid meet">
<metadata>
Created by potrace 1.16, written by Peter Selinger 2001-2019
</metadata>
<g transform="translate(0.000000,60.000000) scale(0.100000,-0.100000)"
fill="#000000" stroke="none">
<path d="M0 300 l0 -300 1465 0 1465 0 0 300 0 300 -1465 0 -1465 0 0 -300z
m250 264 c0 -6 20 -131 45 -281 6 -33 6 -33 -35 -33 -38 0 -40 2 -40 30 0 25
-4 30 -25 30 -21 0 -25 -5 -25 -30 0 -28 -2 -30 -40 -30 -22 0 -40 2 -40 4 0
2 9 70 20 151 11 81 20 152 20 156 0 5 27 9 60 9 33 0 60 -3 60 -6z m450 0 c0
-6 20 -131 45 -281 6 -33 6 -33 -35 -33 -38 0 -40 2 -40 30 0 25 -4 30 -25 30
-21 0 -25 -5 -25 -30 l0 -30 -132 1 c-120 1 -135 3 -155 22 -27 24 -30 72 -7
98 12 13 13 22 5 38 -29 53 9 111 74 111 63 0 111 -70 73 -108 -9 -9 -9 -18 0
-37 10 -21 15 -24 31 -15 11 5 22 10 25 10 11 0 6 -46 -5 -57 -8 -8 -8 -17 -1
-29 10 -17 11 -17 16 6 5 26 36 255 36 271 0 5 27 9 60 9 33 0 60 -3 60 -6z
m250 -89 c0 -33 2 -35 35 -35 31 0 35 -3 35 -25 0 -22 -4 -25 -35 -25 -33 0
-35 -2 -35 -35 0 -31 -3 -35 -25 -35 -22 0 -25 4 -25 35 0 33 -2 35 -35 35
-31 0 -35 3 -35 25 0 22 4 25 35 25 33 0 35 2 35 35 0 31 3 35 25 35 22 0 25
-4 25 -35z"/>
</g>
</svg>
